<?xml version="1.0" standalone="no"?>
<!DOCTYPE svg PUBLIC "-//W3C//DTD SVG 20010904//EN"
 "http://www.w3.org/TR/2001/REC-SVG-20010904/DTD/svg10.dtd">
<svg version="1.0" xmlns="http://www.w3.org/2000/svg"
 width="1563.000000pt" height="1563.000000pt" viewBox="0 0 1563.000000 1563.000000"
 preserveAspectRatio="xMidYMid meet">

<g transform="translate(0.000000,1563.000000) scale(0.100000,-0.100000)"
fill="#000000" stroke="none">
<path d="M7588 12688 l-208 -81 0 -3634 c0 -3457 1 -3634 18 -3629 9 3 107 32
217 65 l200 60 214 -65 c118 -35 215 -64 217 -64 2 0 4 1635 4 3633 l0 3634
-210 81 c-116 45 -218 82 -228 81 -9 0 -110 -37 -224 -81z"/>
<path d="M5441 10606 c-887 -348 -1620 -637 -1627 -642 -12 -8 -14 -430 -12
-2860 l3 -2851 340 104 c187 57 384 117 437 133 l98 31 2 2422 3 2421 1195
468 1195 467 3 470 c2 374 0 471 -10 470 -7 -1 -739 -286 -1627 -633z"/>
<path d="M8552 10771 l3 -472 1195 -467 1195 -468 3 -2421 2 -2422 98 -31 c53
-16 250 -76 437 -133 l340 -104 3 2851 c1 1567 -1 2853 -5 2857 -8 7 -3218
1266 -3256 1276 -16 5 -17 -20 -15 -466z"/>
<path d="M5828 9412 l-428 -167 0 -2257 0 -2257 48 14 c26 8 223 68 437 134
l390 118 3 2292 c2 1830 0 2291 -10 2290 -7 0 -205 -76 -440 -167z"/>
<path d="M9352 7289 l3 -2292 325 -99 c179 -54 376 -114 438 -132 l112 -34 0
2256 0 2257 -433 168 c-237 92 -435 167 -440 167 -4 0 -6 -1031 -5 -2291z"/>
<path d="M2093 7042 l-1373 -537 0 -1592 c0 -876 1 -1593 3 -1593 1 0 198 60
437 133 l435 132 3 1161 2 1161 943 369 942 370 3 467 c2 370 0 467 -10 466
-7 0 -631 -242 -1385 -537z"/>
<path d="M12142 7114 l3 -468 942 -370 943 -369 2 -1161 3 -1161 435 -132
c239 -73 436 -133 438 -133 1 0 2 717 2 1593 l0 1592 -1365 534 c-751 293
-1375 535 -1385 538 -20 5 -20 -1 -18 -463z"/>
<path d="M2585 5930 l-430 -167 -3 -1007 c-1 -553 1 -1006 6 -1006 12 0 852
256 857 262 3 3 4 473 3 1045 l-3 1041 -430 -168z"/>
<path d="M12610 5055 l0 -1044 113 -35 c173 -54 709 -216 735 -223 l22 -5 -2
1007 -3 1008 -395 153 c-217 85 -412 161 -432 169 l-38 15 0 -1045z"/>
<path d="M3960 4035 c-2109 -640 -3848 -1167 -3864 -1172 -22 -6 -14 -8 40 -9
38 -1 56 2 41 5 -17 4 1399 266 3800 704 2105 384 3833 698 3838 698 6 0 1733
-314 3838 -698 2401 -438 3817 -700 3800 -704 -15 -3 2 -6 40 -5 43 1 59 4 45
8 -233 74 -7722 2338 -7731 2337 -7 -1 -1738 -525 -3847 -1164z"/>
<path d="M4003 3402 c-2086 -295 -3788 -539 -3782 -541 6 -2 1717 142 3803
320 l3791 323 3788 -323 c2083 -177 3794 -321 3803 -319 12 2 -7465 1062
-7581 1074 -16 1 -1737 -239 -3822 -534z"/>
</g>
</svg>
